# AST/ASF file generated using VICON BodyLanguage
# -----------------------------------------------
:version 1.10
:name VICON
:units
  mass 1.0
  length 0.45
  angle deg
:documentation
   .ast/.asf automatically generated from VICON data using
   VICON BodyBuilder and BodyLanguage model FoxedUp or BRILLIANT.MOD
:root
   order TX TY TZ RX RY RZ
   axis XYZ
   position 0 0 0  
   orientation 0 0 0 
:bonedata
  begin
     id 1 
     name lhipjoint
     direction 0.570549 -0.739093 0.358072 
     length 2.41801 
     axis 0 0 0  XYZ
  end
  begin
     id 2 
     name lfemur
     direction 0.34202 -0.939693 0  
     length 7.44434  
     axis 0 0 20  XYZ
    dof rx ry rz
    limits (-160.0 20.0)
           (-70.0 70.0)
           (-60.0 70.0)
  end
  begin
     id 3 
     name ltibia
     direction 0.34202 -0.939693 0   
     length 7.60047   
     axis 0 0 20   XYZ
    dof rx
    limits (-10.0 170.0)
  end
  begin
     id 4 
     name lfoot
     direction 0.0909041 -0.249757 0.964032   
     length 2.03437   
     axis -90 7.62852e-016 20   XYZ
    dof rx rz
    limits (-45.0 90.0)
           (-70.0 20.0)
  end
  begin
     id 5 
     name ltoes
     direction 1.53547e-011 -4.2174e-011 1   
     length 1.02054   
     axis -90 7.62852e-016 20   XYZ
    dof rx
    limits (-90.0 20.0)
  end
  begin
     id 6 
     name rhipjoint
     direction -0.558096 -0.746754 0.361784   
     length 2.3932  
     axis 0 0 0  XYZ 
  end
  begin
     id 7 
     name rfemur
     direction -0.34202 -0.939693 0   
     length 7.3886   
     axis 0 0 -20   XYZ
    dof rx ry rz
    limits (-160.0 20.0)
           (-70.0 70.0)
           (-70.0 60.0)
  end
  begin
     id 8 
     name rtibia
     direction -0.34202 -0.939693 0   
     length 7.4839   
     axis 0 0 -20   XYZ
    dof rx
    limits (-10.0 170.0)
 end
 begin
     id 9 
     name rfoot
     direction -0.114619 -0.314914 0.942174   
     length 2.25127  
     axis -90 -7.62852e-016 -20   XYZ
    dof rx rz
    limits (-45.0 90.0)
           (-20.0 70.0)
  end
  begin
     id 10 
     name rtoes
     direction -1.53518e-011 -4.21881e-011 1   
     length 1.11821   
     axis -90 -7.62852e-016 -20   XYZ
    dof rx
    limits (-90.0 20.0)
  end
  begin
     id 11 
     name lowerback
     direction -0.00902269 0.996426 -0.0839821   
     length 2.25052   
     axis 0 0 0   XYZ
    dof rx ry rz
    limits (-20.0 45.0)
           (-30.0 30.0)
           (-30.0 30.0)
  end
  begin
     id 12 
     name upperback
     direction 0.0370973 0.999169 -0.0168941   
     length 2.24876   
     axis 0 0 0   XYZ
    dof rx ry rz
    limits (-20.0 45.0)
           (-30.0 30.0)
           (-30.0 30.0)
  end
  begin
     id 13 
     name thorax
     direction 0.0402726 0.998931 0.0227027   
     length 2.26408   
     axis 0 0 0   XYZ
    dof rx ry rz
    limits (-20.0 45.0)
           (-30.0 30.0)
           (-30.0 30.0)
  end
  begin
     id 14 
     name lowerneck
     direction -0.0733697 0.98508 0.155675   
     length 1.58204   
     axis 0 0 0   XYZ
    dof rx ry rz
    limits (-20.0 45.0)
           (-30.0 30.0)
           (-30.0 30.0)
  end
  begin
     id 15 
     name upperneck
     direction 0.0426554 0.993501 -0.105526   
     length 1.61222   
     axis 0 0 0   XYZ
    dof rx ry rz
    limits (-20.0 45.0)
           (-30.0 30.0)
           (-30.0 30.0)
  end
  begin
     id 16
     name head
     direction 0.020792 0.998384 -0.0528868  
     length 1.61527  
     axis 0 0 0   XYZ
    dof rx ry rz
    limits (-20.0 45.0)
           (-30.0 30.0)
           (-30.0 30.0)
  end
  begin
     id 17 
     name lclavicle
     direction 0.967109 0.155462 -0.201325  
     length 3.59357  
     axis 0 0 0   XYZ
    dof ry rz
    limits (-20.0 10.0)
           (0.0 20.0)
  end
  begin
     id 18 
     name lhumerus
     direction 1 -4.48968e-011 2.38195e-027   
     length 5.38154   
     axis 180 -30 -90   XYZ
    dof rx ry rz
    limits (-60.0 90.0)
           (-90.0 90.0)
           (-90.0 90.0)
  end
  begin
     id 19
     name lradius
     direction 1 -4.48961e-011 4.85371e-027   
     length 3.33312   
     axis 180 -30 -90   XYZ
    dof rx
    limits (-10.0 170.0)
  end
  begin
     id 20
     name lwrist
     direction 1 -4.48961e-011 4.76515e-027   
     length 1.66656   
     axis -3.27502e-015 90 90   XYZ
    dof ry
    limits (-180.0 0.0)
 end
  begin
     id 21 
     name lhand
     direction 1 -4.48951e-011 9.53074e-027   
     length 0.710789   
     axis -6.08098e-015 90 90   XYZ
    dof rx rz
    limits (-90.0 90.0)
           (-45.0 45.0)
  end
  begin
     id 22 
     name lfingers
     direction 1 -4.48953e-011 1.90613e-026   
     length 0.573057   
     axis -1.21619e-014 90 90   XYZ
    dof rx
    limits (0.0 90.0)
  end
  begin
     id 23
     name lthumb
     direction 0.707107 -6.34973e-011 0.707107   
     length 0.822798   
     axis -90 45 -9.86923e-015   XYZ
    dof rx rz
    limits (-45.0 45.0)
           (-45.0 45.0)
  end
  begin
     id 24 
     name rclavicle
     direction -0.9585 0.265289 -0.104398   
     length 3.42039  
     axis 0 0 0   XYZ 
    dof ry rz
    limits (-10.0 20.0)
           (-20.0 0.0)
  end
  begin
     id 25 
     name rhumerus
     direction -1 -4.48977e-011 2.21478e-027  
     length 5.16954   
     axis 180 30 90   XYZ
    dof rx ry rz
    limits (-90.0 60.0)
           (-90.0 90.0)
           (-90.0 90.0)
  end
  begin
     id 26 
     name rradius
     direction -1 -4.48967e-011 5.63677e-027   
     length 3.38287   
     axis 180 30 90   XYZ
    dof rx
    limits (-10.0 170.0)
  end
  begin
     id 27 
     name rwrist
     direction -1 -4.48967e-011 4.76501e-027   
     length 1.69144   
     axis -3.27502e-015 -90 -90   XYZ
    dof ry
    limits (-180.0 0.0)
  end
  begin
     id 28
     name rhand
     direction -1 -4.48902e-011 9.53292e-027   
     length 0.817967   
     axis -6.08098e-015 -90 -90   XYZ
    dof rx rz
    limits (-90.0 90.0)
           (-45.0 45.0)
  end
  begin
     id 29
     name rfingers
     direction -1 -4.49012e-011 1.90561e-026   
     length 0.659466   
     axis -1.21619e-014 -90 -90   XYZ
    dof rx
    limits (0.0 90.0)
  end
  begin
     id 30
     name rthumb
     direction -0.707107 -6.34944e-011 0.707107   
     length 0.946865   
     axis -90 -45 9.86923e-015   XYZ
    dof rx rz
    limits (-45.0 45.0)
           (-45.0 45.0)
  end
:hierarchy
  begin
    root lhipjoint rhipjoint lowerback
    lhipjoint lfemur
    lfemur ltibia
    ltibia lfoot
    lfoot ltoes
    rhipjoint rfemur
    rfemur rtibia
    rtibia rfoot
    rfoot rtoes
    lowerback upperback
    upperback thorax
    thorax lowerneck lclavicle rclavicle
    lowerneck upperneck
    upperneck head
    lclavicle lhumerus
    lhumerus lradius
    lradius lwrist
    lwrist lhand lthumb
    lhand lfingers
    rclavicle rhumerus
    rhumerus rradius
    rradius rwrist
    rwrist rhand rthumb
    rhand rfingers
  end

#!OML:ASF F:\twosubjects\two\wednesday\Session 1\Justin1.ASF
:FULLY-SPECIFIED
:DEGREES
1
root 3.78951 17.3716 -17.6866 -2.15197 -2.48413 2.34931
lowerback 1.97939 1.53995 -0.768149
upperback 0.906208 2.0413 0.603708
thorax -0.229799 1.01798 1.00361
lowerneck -18.0416 -3.1249 -11.5128
upperneck 21.4384 -2.95579 7.8264
head 10.1057 -1.40357 4.29448
rclavicle -3.69615e-016 -2.78299e-015
rhumerus -19.2767 -15.4073 -84.5688
rradius 33.6923
rwrist -18.0157
rhand -15.7019 17.5278
rfingers 7.12502
rthumb 10.4877 -12.1905
lclavicle -3.69615e-016 -2.78299e-015
lhumerus -37.3689 27.3581 71.6449
lradius 19.6887
lwrist -20.329
lhand 0.674316 40.8702
lfingers 7.12502
lthumb 26.2361 69.0766
rfemur -11.9785 -1.79124 16.5861
rtibia 65.0561
rfoot 1.14234 -9.69122
rtoes 11.8231
lfemur -12.1217 0.168553 -25.004
ltibia 26.8643
lfoot -11.5955 -8.01209
ltoes -0.225945
2
root 3.79621 17.3551 -17.5224 -2.19794 -2.06669 2.37273
lowerback 2.12288 1.3398 -0.891848
upperback 0.863684 1.77159 0.668221
thorax -0.353094 0.883638 1.14068
lowerneck -17.9951 -3.03226 -11.3088
upperneck 21.4221 -2.87681 7.77048
head 10.0774 -1.35727 4.25033
rclavicle 2.10743e-014 -3.97569e-015
rhumerus -20.1893 -15.9008 -84.2838
rradius 33.0831
rwrist -17.4035
rhand -15.775 18.2607
rfingers 7.12502
rthumb 10.4172 -11.4612
lclavicle 2.10743e-014 -3.97569e-015
lhumerus -35.9189 26.8898 72.7267
lradius 19.6428
lwrist -19.5371
lhand -0.0915476 39.9767
lfingers 7.12502
lthumb 25.5027 68.29
rfemur -13.391 -2.24832 16.5113
rtibia 65.2593
rfoot -0.739898 -9.18714
rtoes 11.9441
lfemur -11.6647 0.0278823 -25.1422
ltibia 27.2774
lfoot -12.3219 -8.10196
ltoes -0.478644
3
root 3.80387 17.3313 -17.3643 -2.35721 -1.65628 2.62716
lowerback 2.32243 1.17579 -1.30885
upperback 0.894196 1.5432 0.789135
thorax -0.441622 0.769218 1.4999
lowerneck -17.9084 -3.03878 -11.7685
upperneck 21.446 -2.84567 8.10254
head 10.0785 -1.34471 4.45413
rclavicle 3.84835e-015 1.39149e-014
rhumerus -21.0005 -16.218 -83.7598
rradius 32.5465
rwrist -17.002
rhand -15.6647 18.6994
rfingers 7.12502
rthumb 10.5236 -11.0172
lclavicle 3.84835e-015 1.39149e-014
lhumerus -34.543 26.0438 74.1344
lradius 19.9767
lwrist -18.3337
lhand -0.105662 38.2484
lfingers 7.12502
lthumb 25.4892 66.5637
rfemur -14.683 -2.72657 16.1981
rtibia 65.3379
rfoot -2.75323 -8.82117
rtoes 11.6887
lfemur -11.0096 -0.379343 -25.5479
ltibia 27.562
lfoot -12.9379 -7.88645
ltoes -1.36663
4
root 3.80654 17.3125 -17.2037 -2.41983 -1.19411 2.76561
lowerback 2.39536 0.983229 -1.50188
upperback 0.943382 1.2816 0.821099
thorax -0.427519 0.637674 1.64754
lowerneck -17.8456 -3.04589 -12.0908
upperneck 21.5666 -2.84092 8.36869
head 10.1181 -1.34193 4.61032
rclavicle -1.57164e-014 -9.54166e-015
rhumerus -21.8446 -16.3528 -83.4314
rradius 32.2263
rwrist -16.9363
rhand -16.587 17.5763
rfingers 7.12502
rthumb 9.63381 -12.1834
lclavicle -1.57164e-014 -9.54166e-015
lhumerus -33.022 25.9787 75.1058
lradius 20.2254
lwrist -17.9625
lhand 0.558733 38.4817
lfingers 7.12502
lthumb 26.1254 66.7044
rfemur -16.0402 -3.1106 16.0776
rtibia 65.3255
rfoot -4.8212 -8.6809
rtoes 12.1245
lfemur -10.46 -0.733349 -25.7961
ltibia 27.8352
lfoot -13.6168 -7.84766
ltoes -1.71433
5
root 3.80734 17.2953 -17.0345 -2.50353 -0.801256 3.20514
lowerback 2.61466 0.794677 -1.81704
upperback 0.915751 1.01753 0.561426
thorax -0.56868 0.507078 1.56231
lowerneck -17.7893 -2.9378 -11.7274
upperneck 21.5812 -2.79849 8.34978
head 10.1002 -1.29562 4.54813
rclavicle -1.25514e-014 2.78299e-015
rhumerus -22.722 -16.4861 -83.4343
rradius 31.7547
rwrist -16.9124
rhand -16.4991 17.0661
rfingers 7.12502
rthumb 9.7186 -12.6897
lclavicle -1.25514e-014 2.78299e-015
lhumerus -31.5119 25.288 75.8928
lradius 20.6011
lwrist -17.1028
lhand 1.2046 40.3625
lfingers 7.12502
lthumb 26.7437 68.4923
rfemur -17.311 -3.41217 15.612
rtibia 65.1434
rfoot -6.73895 -8.39942
rtoes 11.974
lfemur -9.86723 -1.02806 -26.3525
ltibia 28.089
lfoot -14.1987 -7.88915
ltoes -0.531532
6
root 3.81607 17.2584 -16.8636 -2.74565 -0.508984 4.03575
lowerback 2.40631 0.618667 -2.97605
upperback 1.34326 0.765728 0.640749
thorax -0.0186507 0.366333 2.30742
lowerneck -17.9811 -2.87267 -11.5828
upperneck 21.1462 -2.59841 7.9112
head 9.95149 -1.23094 4.37905
rclavicle -9.38015e-015 -1.59028e-015
rhumerus -22.8843 -16.2013 -83.016
rradius 31.1972
rwrist -16.8752
rhand -16.18 16.9189
rfingers 7.12502
rthumb 10.0265 -12.8223
lclavicle -9.38015e-015 -1.59028e-015
lhumerus -29.9108 24.0182 77.6051
lradius 21.6894
lwrist -15.263
lhand 1.53824 41.3107
lfingers 7.12502
lthumb 27.0629 69.3913
rfemur -18.3971 -3.82125 14.6
rtibia 64.7933
rfoot -8.24869 -7.86174
rtoes 10.1501
lfemur -9.06587 -1.31428 -27.3936
ltibia 28.3079
lfoot -14.8158 -7.71182
ltoes 0.222092
